solid Mesh
  facet normal -0.935499 -0.353328 -0.000000
    outer loop
      vertex -7.817000 -19.531000 4.001000
      vertex -11.995000 -8.469000 -0.001000
      vertex -7.817000 -19.531000 -0.001000
    endloop
  endfacet
  facet normal -0.935499 -0.353328 -0.000000
    outer loop
      vertex -11.995000 -8.469000 4.001000
      vertex -11.995000 -8.469000 -0.001000
      vertex -7.817000 -19.531000 4.001000
    endloop
  endfacet
  facet normal 0.000000 -1.000000 0.000000
    outer loop
      vertex -7.817000 -19.531000 4.001000
      vertex -7.817000 -19.531000 -0.001000
      vertex -4.112000 -19.531000 -0.001000
    endloop
  endfacet
  facet normal 0.000000 -1.000000 0.000000
    outer loop
      vertex -4.112000 -19.531000 -0.001000
      vertex -4.112000 -19.531000 4.001000
      vertex -7.817000 -19.531000 4.001000
    endloop
  endfacet
  facet normal 0.937473 -0.348057 0.000000
    outer loop
      vertex -4.112000 -19.531000 -0.001000
      vertex -0.005000 -8.469000 4.001000
      vertex -4.112000 -19.531000 4.001000
    endloop
  endfacet
  facet normal 0.937473 -0.348057 0.000000
    outer loop
      vertex -0.005000 -8.469000 -0.001000
      vertex -0.005000 -8.469000 4.001000
      vertex -4.112000 -19.531000 -0.001000
    endloop
  endfacet
  facet normal 0.000000 1.000000 0.000000
    outer loop
      vertex -11.995000 -8.469000 4.001000
      vertex -8.422000 -8.469000 -0.001000
      vertex -11.995000 -8.469000 -0.001000
    endloop
  endfacet
  facet normal 0.000000 1.000000 0.000000
    outer loop
      vertex -8.422000 -8.469000 4.001000
      vertex -8.422000 -8.469000 -0.001000
      vertex -11.995000 -8.469000 4.001000
    endloop
  endfacet
  facet normal 0.000000 0.000000 -1.000000
    outer loop
      vertex -11.995000 -8.469000 -0.001000
      vertex -8.422000 -8.469000 -0.001000
      vertex -5.932000 -16.430000 -0.001000
    endloop
  endfacet
  facet normal -0.000000 0.000000 -1.000000
    outer loop
      vertex -5.932000 -16.430000 -0.001000
      vertex -7.817000 -19.531000 -0.001000
      vertex -11.995000 -8.469000 -0.001000
    endloop
  endfacet
  facet normal 0.000000 0.000000 1.000000
    outer loop
      vertex -0.005000 -8.469000 4.001000
      vertex -3.474000 -8.469000 4.001000
      vertex -5.932000 -16.430000 4.001000
    endloop
  endfacet
  facet normal -0.000000 0.000000 1.000000
    outer loop
      vertex -5.932000 -16.430000 4.001000
      vertex -4.112000 -19.531000 4.001000
      vertex -0.005000 -8.469000 4.001000
    endloop
  endfacet
  facet normal 0.000000 0.000000 1.000000
    outer loop
      vertex -5.932000 -16.430000 4.001000
      vertex -7.817000 -19.531000 4.001000
      vertex -4.112000 -19.531000 4.001000
    endloop
  endfacet
  facet normal 0.000000 1.000000 0.000000
    outer loop
      vertex -3.474000 -8.469000 4.001000
      vertex -0.005000 -8.469000 -0.001000
      vertex -3.474000 -8.469000 -0.001000
    endloop
  endfacet
  facet normal 0.000000 1.000000 0.000000
    outer loop
      vertex -0.005000 -8.469000 4.001000
      vertex -0.005000 -8.469000 -0.001000
      vertex -3.474000 -8.469000 4.001000
    endloop
  endfacet
  facet normal 0.000000 0.000000 1.000000
    outer loop
      vertex -5.932000 -16.430000 4.001000
      vertex -11.995000 -8.469000 4.001000
      vertex -7.817000 -19.531000 4.001000
    endloop
  endfacet
  facet normal 0.000000 0.000000 1.000000
    outer loop
      vertex -8.422000 -8.469000 4.001000
      vertex -11.995000 -8.469000 4.001000
      vertex -5.932000 -16.430000 4.001000
    endloop
  endfacet
  facet normal 0.954405 0.298514 -0.000000
    outer loop
      vertex -5.932000 -16.430000 -0.001000
      vertex -8.422000 -8.469000 4.001000
      vertex -5.932000 -16.430000 4.001000
    endloop
  endfacet
  facet normal 0.954405 0.298514 -0.000000
    outer loop
      vertex -8.422000 -8.469000 -0.001000
      vertex -8.422000 -8.469000 4.001000
      vertex -5.932000 -16.430000 -0.001000
    endloop
  endfacet
  facet normal -0.955493 0.295013 0.000000
    outer loop
      vertex -5.932000 -16.430000 4.001000
      vertex -3.474000 -8.469000 -0.001000
      vertex -5.932000 -16.430000 -0.001000
    endloop
  endfacet
  facet normal -0.955493 0.295013 0.000000
    outer loop
      vertex -3.474000 -8.469000 4.001000
      vertex -3.474000 -8.469000 -0.001000
      vertex -5.932000 -16.430000 4.001000
    endloop
  endfacet
  facet normal 0.000000 0.000000 -1.000000
    outer loop
      vertex -4.112000 -19.531000 -0.001000
      vertex -7.817000 -19.531000 -0.001000
      vertex -5.932000 -16.430000 -0.001000
    endloop
  endfacet
  facet normal 0.000000 0.000000 -1.000000
    outer loop
      vertex -5.932000 -16.430000 -0.001000
      vertex -0.005000 -8.469000 -0.001000
      vertex -4.112000 -19.531000 -0.001000
    endloop
  endfacet
  facet normal 0.000000 -0.000000 -1.000000
    outer loop
      vertex -3.474000 -8.469000 -0.001000
      vertex -0.005000 -8.469000 -0.001000
      vertex -5.932000 -16.430000 -0.001000
    endloop
  endfacet
endsolid Mesh
